<svg data-v-fde0c5aa="" xmlns="http://www.w3.org/2000/svg" viewBox="10 10 80 80" class="iconAbove"><!----><defs data-v-fde0c5aa=""><!----></defs><rect data-v-fde0c5aa="" fill="transparent" x="0" y="0" width="300px" height="300px" class="logo-background-square"></rect><defs data-v-fde0c5aa=""><!----></defs><g data-v-fde0c5aa="" id="dc7a0253-bad7-4454-ad0e-0f459d2b9cd4" fill="#EE0606"><path d=""></path></g><defs data-v-fde0c5aa=""><!----></defs><g data-v-fde0c5aa="" id="a21cf23a-e14c-43eb-b551-fab86375c174" stroke="none" fill="#F90606"><path style="text-indent:0;text-transform:none;block-progression:tb" d="M15 21c-1.759 0-3.002 1.603-3 3v52c0 1.57 1.43 3 3 3h70c1.57 0 3-1.43 3-3V24c0-1.57-1.43-3-3-3zm3 6h64v46H18zm23.531 8.344c-.89.53-1.463 1.59-1.468 2.656v24c.01 1.377.761 2.255 1.593 2.719a2.875 2.875 0 002.813-.094l20-12c.873-.539 1.469-1.57 1.469-2.625s-.596-2.086-1.47-2.625l-20-12c-1.026-.558-2.372-.435-2.937-.031zm4.407 7.906L57.156 50l-11.218 6.75z" overflow="visible" color="#000"></path></g><!----></svg>