<svg data-v-fde0c5aa="" xmlns="http://www.w3.org/2000/svg" viewBox="0 100 300 100" class="font"><!----><defs data-v-fde0c5aa=""><!----></defs><rect data-v-fde0c5aa="" fill="transparent" x="0" y="0" width="300px" height="100px" class="logo-background-square"></rect><defs data-v-fde0c5aa=""><!----></defs><g data-v-fde0c5aa="" id="04b6efeb-6dba-4e51-9d76-4876d81cc1e3" fill="#EE0606" transform="matrix(4.330708726458043,0,0,4.330708726458043,39.13385824180186,88.80708726458042)"><path d="M10.43 7.73Q10.95 7.83 11.11 7.89Q11.27 7.95 11.33 8.08L11.33 8.08Q11.03 9.21 10.56 11.29Q10.08 13.37 9.91 14.08L9.91 14.08Q9.60 15.51 9.34 16.62L9.34 16.62Q9.14 17.39 8.72 17.39L8.72 17.39Q7.43 17.39 7.43 16.79L7.43 16.79Q7.43 17.02 8.16 13.62L8.16 13.62L8.41 12.42L5.63 16.73Q5.40 17.01 4.97 17.01L4.97 17.01Q4.61 17.01 4.29 16.83Q3.98 16.65 4.02 16.46L4.02 16.46L3.25 11.94L2.10 16.58Q2.00 16.98 1.80 17.12Q1.60 17.26 1.04 17.26L1.04 17.26Q0.60 17.26 0.40 17.12Q0.20 16.97 0.20 16.62L0.20 16.62Q0.20 16.46 0.24 16.32L0.24 16.32L2.16 8.75Q2.31 8.13 2.48 7.93Q2.66 7.73 3.12 7.73L3.12 7.73Q3.50 7.73 3.79 7.81Q4.09 7.90 4.10 8.06L4.10 8.06L4.10 8.09L5.22 15.05Q5.82 14.08 7.20 11.86Q8.58 9.63 9.37 8.39L9.37 8.39Q9.51 8.04 9.68 7.93Q9.86 7.83 10.09 7.78Q10.32 7.74 10.43 7.73L10.43 7.73ZM7.43 16.79L7.43 16.79ZM14.39 17.37Q13.16 17.37 12.47 16.53Q11.79 15.69 11.79 14.39L11.79 14.39Q11.79 13.30 12.31 12.33Q12.84 11.37 13.75 10.78Q14.66 10.19 15.75 10.19L15.75 10.19Q16.83 10.19 17.52 10.90Q18.21 11.61 18.21 12.98L18.21 12.98Q18.21 13.94 17.68 14.98Q17.15 16.02 16.26 16.70Q15.37 17.37 14.39 17.37L14.39 17.37ZM14.60 16.25Q15.05 16.25 15.50 15.69Q15.96 15.13 16.25 14.28Q16.55 13.43 16.55 12.61L16.55 12.61Q16.55 11.37 15.51 11.37L15.51 11.37Q14.94 11.37 14.46 11.91Q13.99 12.46 13.71 13.27Q13.43 14.07 13.43 14.77L13.43 14.77Q13.43 15.18 13.61 15.52Q13.79 15.86 14.06 16.06Q14.34 16.25 14.60 16.25L14.60 16.25ZM20.44 17.37Q19.96 17.28 19.77 17.18Q19.57 17.08 19.52 16.91Q19.46 16.74 19.45 16.34L19.45 16.34Q19.40 15.39 19.32 14.45L19.32 14.45Q19.31 14.22 19.24 13.12Q19.17 12.01 19.17 11.02L19.17 11.02Q19.17 10.77 19.43 10.60Q19.68 10.43 20.08 10.43L20.08 10.43Q20.83 10.43 20.83 11.12L20.83 11.12L20.85 14.95L20.85 15.93Q21.78 14.17 22.97 12.29Q24.15 10.42 24.50 10.42L24.50 10.42Q24.95 10.42 25.26 10.59Q25.56 10.77 25.58 10.99L25.58 10.99Q25.45 11.23 25.03 11.86L25.03 11.86Q24.86 12.10 24.43 12.78L24.43 12.78L23.94 13.55Q22.76 15.39 22.30 16.07Q21.84 16.74 21.52 17.04L21.52 17.04Q21.36 17.18 21.07 17.28Q20.78 17.37 20.44 17.37L20.44 17.37ZM26.94 8.76Q26.94 8.33 27.21 7.99Q27.48 7.66 27.97 7.66L27.97 7.66Q28.49 7.66 28.88 7.98Q29.26 8.30 29.26 8.71L29.26 8.71Q29.26 9.11 28.87 9.41Q28.48 9.70 27.96 9.70L27.96 9.70Q27.45 9.70 27.20 9.44Q26.94 9.18 26.94 8.76L26.94 8.76ZM28.41 11.24Q27.66 14.27 27.27 15.79L27.27 15.79Q27.22 16.02 27.22 16.28L27.22 16.28L27.23 16.67Q27.23 16.91 27.08 17.01Q26.94 17.11 26.46 17.12L26.46 17.12Q26.00 17.12 25.76 17.02Q25.52 16.93 25.52 16.60L25.52 16.60Q25.52 16.45 25.88 14.97Q26.24 13.48 26.85 11.10L26.85 11.10L26.53 10.68Q26.49 10.64 26.49 10.58L26.49 10.58Q26.49 10.44 26.80 10.35Q27.10 10.26 27.65 10.26L27.65 10.26Q28.13 10.26 28.26 10.54Q28.39 10.81 28.41 11.24L28.41 11.24ZM31.74 17.37Q30.37 17.37 29.74 16.83Q29.11 16.28 29.11 15.37L29.11 15.37Q29.11 14.04 29.77 12.91Q30.44 11.77 31.55 11.11Q32.66 10.44 33.95 10.44L33.95 10.44Q34.73 10.44 35.27 10.89Q35.80 11.33 35.80 12.18L35.80 12.18Q35.80 12.67 35.48 12.99Q35.17 13.30 34.58 13.55Q33.99 13.79 32.68 14.24L32.68 14.24Q31.49 14.63 30.74 14.90L30.74 14.90Q30.69 15.11 30.69 15.33L30.69 15.33Q30.69 15.72 31.02 15.93Q31.35 16.14 31.95 16.14L31.95 16.14Q32.33 16.14 32.82 15.99Q33.31 15.83 33.43 15.60L33.43 15.60Q33.91 14.73 34.30 14.73L34.30 14.73Q34.87 14.73 35.08 14.95Q35.28 15.16 35.29 15.43L35.29 15.43Q35.13 15.88 34.64 16.33Q34.15 16.79 33.39 17.08Q32.63 17.37 31.74 17.37L31.74 17.37ZM31.14 13.61Q32.52 13.16 33.42 12.78Q34.31 12.39 34.31 12.01L34.31 12.01Q34.31 11.84 34.13 11.74Q33.95 11.63 33.74 11.63L33.74 11.63Q33.32 11.63 32.78 11.96Q32.24 12.28 31.78 12.74Q31.32 13.20 31.14 13.61L31.14 13.61ZM43.71 7.53Q44.21 7.80 44.21 8.20L44.21 8.20Q44.21 8.46 43.95 8.67Q43.68 8.89 43.34 8.99L43.34 8.99L43.18 9.00Q41.37 9.10 39.87 9.27L39.87 9.27L39.09 12.40Q40.12 12.24 40.92 12.17Q41.72 12.10 41.87 12.08L41.87 12.08L42.42 12.04Q42.97 12.28 42.97 12.68L42.97 12.68Q42.97 12.94 42.71 13.17Q42.46 13.41 42.14 13.51L42.14 13.51L41.93 13.54Q41.30 13.61 40.75 13.65L40.75 13.65Q39.33 13.78 38.72 13.87L38.72 13.87L38.05 16.58Q37.98 16.87 37.91 17.00Q37.83 17.14 37.64 17.20Q37.45 17.26 37.07 17.26L37.07 17.26Q36.64 17.26 36.44 17.12Q36.23 16.97 36.23 16.62L36.23 16.62Q36.23 16.46 36.27 16.32L36.27 16.32L38.19 8.75Q38.35 8.13 38.52 7.93Q38.70 7.73 39.16 7.73L39.16 7.73Q39.65 7.73 39.96 7.85L39.96 7.85Q42.01 7.59 43.71 7.53L43.71 7.53ZM47.94 16.49Q47.46 16.94 47.01 17.16Q46.56 17.37 46.00 17.37L46.00 17.37Q45.08 17.37 44.58 16.80Q44.09 16.23 44.09 15.27L44.09 15.27Q44.09 14.99 44.17 14.66L44.17 14.66L45.11 11.00Q45.19 10.70 45.41 10.55Q45.63 10.40 46.12 10.40L46.12 10.40Q46.84 10.40 46.84 10.81L46.84 10.81Q46.84 10.98 46.75 11.34L46.75 11.34L45.81 15.09Q45.77 15.26 45.77 15.43L45.77 15.43Q45.77 15.72 45.92 15.90Q46.07 16.09 46.41 16.09L46.41 16.09Q46.84 16.09 47.35 15.83Q47.85 15.58 48.20 15.22L48.20 15.22L48.47 14.11Q48.73 12.99 49.08 11.69L49.08 11.69Q49.24 11.13 49.48 10.77Q49.73 10.42 50.26 10.42L50.26 10.42Q51.00 10.42 51.00 10.86L51.00 10.86Q51.00 10.93 50.97 11.04Q50.93 11.14 50.92 11.21L50.92 11.21L50.46 13.13Q49.73 16.18 49.50 17.04L49.50 17.04Q49.14 18.44 48.68 19.24Q48.22 20.03 47.52 20.38Q46.83 20.73 45.75 20.73L45.75 20.73Q45.07 20.73 44.63 20.54Q44.18 20.34 43.98 20.06Q43.78 19.78 43.78 19.54L43.78 19.54Q43.78 18.86 44.53 18.86L44.53 18.86Q44.74 18.86 44.88 18.94Q45.01 19.03 45.15 19.18L45.15 19.18Q45.36 19.38 45.54 19.47Q45.71 19.57 46.02 19.57L46.02 19.57Q46.26 19.57 46.55 19.38Q46.84 19.18 47.12 18.76Q47.40 18.34 47.59 17.71L47.59 17.71L47.94 16.49Z"></path></g><!----><!----></svg>